<svg xmlns="http://www.w3.org/2000/svg" viewBox="0 0 9 9" width="9" height="9" shape-rendering="crispEdges">
  <title>Flamme</title>
  <rect x="4" y="0" width="1" height="1" fill="#E8452C"/>
  <rect x="3" y="1" width="2" height="1" fill="#E8452C"/>
  <rect x="7" y="1" width="1" height="1" fill="#E8452C"/>
  <rect x="2" y="2" width="1" height="1" fill="#E8452C"/>
  <rect x="3" y="2" width="1" height="1" fill="#FF8A1F"/>
  <rect x="4" y="2" width="1" height="1" fill="#E8452C"/>
  <rect x="6" y="2" width="2" height="1" fill="#E8452C"/>
  <rect x="1" y="3" width="2" height="1" fill="#E8452C"/>
  <rect x="3" y="3" width="2" height="1" fill="#FF8A1F"/>
  <rect x="5" y="3" width="3" height="1" fill="#E8452C"/>
  <rect x="1" y="4" width="1" height="1" fill="#E8452C"/>
  <rect x="2" y="4" width="2" height="1" fill="#FF8A1F"/>
  <rect x="4" y="4" width="1" height="1" fill="#FFD84A"/>
  <rect x="5" y="4" width="1" height="1" fill="#FF8A1F"/>
  <rect x="6" y="4" width="2" height="1" fill="#E8452C"/>
  <rect x="0" y="5" width="2" height="1" fill="#E8452C"/>
  <rect x="2" y="5" width="1" height="1" fill="#FF8A1F"/>
  <rect x="3" y="5" width="3" height="1" fill="#FFD84A"/>
  <rect x="6" y="5" width="1" height="1" fill="#FF8A1F"/>
  <rect x="7" y="5" width="2" height="1" fill="#E8452C"/>
  <rect x="0" y="6" width="1" height="1" fill="#E8452C"/>
  <rect x="1" y="6" width="1" height="1" fill="#FF8A1F"/>
  <rect x="2" y="6" width="2" height="1" fill="#FFD84A"/>
  <rect x="4" y="6" width="1" height="1" fill="#FFF6C2"/>
  <rect x="5" y="6" width="2" height="1" fill="#FFD84A"/>
  <rect x="7" y="6" width="1" height="1" fill="#FF8A1F"/>
  <rect x="8" y="6" width="1" height="1" fill="#E8452C"/>
  <rect x="0" y="7" width="1" height="1" fill="#E8452C"/>
  <rect x="1" y="7" width="1" height="1" fill="#FF8A1F"/>
  <rect x="2" y="7" width="1" height="1" fill="#FFD84A"/>
  <rect x="3" y="7" width="3" height="1" fill="#FFF6C2"/>
  <rect x="6" y="7" width="1" height="1" fill="#FFD84A"/>
  <rect x="7" y="7" width="1" height="1" fill="#FF8A1F"/>
  <rect x="8" y="7" width="1" height="1" fill="#E8452C"/>
  <rect x="1" y="8" width="2" height="1" fill="#E8452C"/>
  <rect x="3" y="8" width="3" height="1" fill="#FF8A1F"/>
  <rect x="6" y="8" width="2" height="1" fill="#E8452C"/>
</svg>
