<svg xmlns="http://www.w3.org/2000/svg" viewBox="0 0 9 9" width="9" height="9" shape-rendering="crispEdges">
  <title>Stufe</title>
  <rect x="4" y="0" width="1" height="1" fill="#4FE08A"/>
  <rect x="3" y="1" width="3" height="1" fill="#4FE08A"/>
  <rect x="2" y="2" width="2" height="1" fill="#4FE08A"/>
  <rect x="4" y="2" width="1" height="1" fill="#23964F"/>
  <rect x="5" y="2" width="2" height="1" fill="#4FE08A"/>
  <rect x="1" y="3" width="2" height="1" fill="#4FE08A"/>
  <rect x="3" y="3" width="1" height="1" fill="#23964F"/>
  <rect x="5" y="3" width="1" height="1" fill="#23964F"/>
  <rect x="6" y="3" width="2" height="1" fill="#4FE08A"/>
  <rect x="0" y="4" width="2" height="1" fill="#4FE08A"/>
  <rect x="2" y="4" width="1" height="1" fill="#23964F"/>
  <rect x="6" y="4" width="1" height="1" fill="#23964F"/>
  <rect x="7" y="4" width="2" height="1" fill="#4FE08A"/>
  <rect x="4" y="5" width="1" height="1" fill="#4FE08A"/>
  <rect x="3" y="6" width="3" height="1" fill="#4FE08A"/>
  <rect x="2" y="7" width="2" height="1" fill="#4FE08A"/>
  <rect x="4" y="7" width="1" height="1" fill="#23964F"/>
  <rect x="5" y="7" width="2" height="1" fill="#4FE08A"/>
  <rect x="1" y="8" width="2" height="1" fill="#4FE08A"/>
  <rect x="3" y="8" width="1" height="1" fill="#23964F"/>
  <rect x="5" y="8" width="1" height="1" fill="#23964F"/>
  <rect x="6" y="8" width="2" height="1" fill="#4FE08A"/>
</svg>
