<svg xmlns="http://www.w3.org/2000/svg" viewBox="0 0 9 9" width="9" height="9" shape-rendering="crispEdges">
  <title>Medaille</title>
  <rect x="1" y="0" width="1" height="1" fill="#2A54A8"/>
  <rect x="2" y="0" width="1" height="1" fill="#4A86E8"/>
  <rect x="6" y="0" width="1" height="1" fill="#4A86E8"/>
  <rect x="7" y="0" width="1" height="1" fill="#2A54A8"/>
  <rect x="2" y="1" width="1" height="1" fill="#2A54A8"/>
  <rect x="3" y="1" width="1" height="1" fill="#4A86E8"/>
  <rect x="5" y="1" width="1" height="1" fill="#4A86E8"/>
  <rect x="6" y="1" width="1" height="1" fill="#2A54A8"/>
  <rect x="3" y="2" width="1" height="1" fill="#2A54A8"/>
  <rect x="4" y="2" width="1" height="1" fill="#4A86E8"/>
  <rect x="5" y="2" width="1" height="1" fill="#2A54A8"/>
  <rect x="2" y="3" width="1" height="1" fill="#E0A526"/>
  <rect x="3" y="3" width="3" height="1" fill="#FFD23F"/>
  <rect x="6" y="3" width="1" height="1" fill="#E0A526"/>
  <rect x="1" y="4" width="1" height="1" fill="#E0A526"/>
  <rect x="2" y="4" width="1" height="1" fill="#FFD23F"/>
  <rect x="3" y="4" width="2" height="1" fill="#FFF3B0"/>
  <rect x="5" y="4" width="2" height="1" fill="#FFD23F"/>
  <rect x="7" y="4" width="1" height="1" fill="#E0A526"/>
  <rect x="1" y="5" width="1" height="1" fill="#E0A526"/>
  <rect x="2" y="5" width="1" height="1" fill="#FFD23F"/>
  <rect x="3" y="5" width="1" height="1" fill="#FFF3B0"/>
  <rect x="4" y="5" width="2" height="1" fill="#FFD23F"/>
  <rect x="6" y="5" width="1" height="1" fill="#A8661B"/>
  <rect x="7" y="5" width="1" height="1" fill="#E0A526"/>
  <rect x="1" y="6" width="1" height="1" fill="#E0A526"/>
  <rect x="2" y="6" width="3" height="1" fill="#FFD23F"/>
  <rect x="5" y="6" width="2" height="1" fill="#A8661B"/>
  <rect x="7" y="6" width="1" height="1" fill="#E0A526"/>
  <rect x="2" y="7" width="1" height="1" fill="#E0A526"/>
  <rect x="3" y="7" width="1" height="1" fill="#FFD23F"/>
  <rect x="4" y="7" width="2" height="1" fill="#A8661B"/>
  <rect x="6" y="7" width="1" height="1" fill="#E0A526"/>
  <rect x="3" y="8" width="3" height="1" fill="#E0A526"/>
</svg>
